<svg xmlns="http://www.w3.org/2000/svg" width="61" height="61" viewBox="0 0 61 61"><defs><clipPath id="l8fea"><path fill="#fff" d="M30.5 0C47.345 0 61 13.655 61 30.5S47.345 61 30.5 61 0 47.345 0 30.5 13.655 0 30.5 0z"/></clipPath></defs><g><g><path fill="#fff" d="M30.5 0C47.345 0 61 13.655 61 30.5S47.345 61 30.5 61 0 47.345 0 30.5 13.655 0 30.5 0z"/><path fill="none" stroke="#7a9794" stroke-miterlimit="50" stroke-width="2" d="M30.5 0C47.345 0 61 13.655 61 30.5S47.345 61 30.5 61 0 47.345 0 30.5 13.655 0 30.5 0z" clip-path="url(&quot;#l8fea&quot;)"/></g></g></svg>